<svg width="94" height="72" viewBox="0 0 94 72" fill="none" xmlns="http://www.w3.org/2000/svg">
<path fill-rule="evenodd" clip-rule="evenodd" d="M44.8669 15.7715V21.6925L1.913 27.8743V24.8422L44.8669 15.7715ZM1.913 28.5842C30.7476 24.6184 41.1293 23.1885 44.8669 22.6729V27.5844L1.913 30.1387V28.5842ZM0.141235 31.1761L46.8537 29.1899L93.0318 31.1536V17.367C68.7068 10.9095 51.3035 3.12097 46.6108 0.920044C41.9904 3.08935 24.5508 10.9098 0.141235 17.3896V31.1761ZM48.3719 27.5656V22.6592C52.1652 23.1822 62.5929 24.6187 91.2601 28.5617V30.1159L48.3719 27.5656ZM44.8669 14.5448L1.913 24.0669V20.7822C23.875 16.8922 39.3904 10.5436 44.8669 8.08503V14.5448ZM44.8669 7.27146C38.2982 9.88371 22.6949 15.635 1.913 20.3136V17.5176C24.3095 12.5388 39.8189 5.24865 44.8669 2.67866V7.27146ZM91.2601 24.044L48.3719 14.5366V8.09191C53.906 10.5711 69.3851 16.8847 91.2601 20.7597V24.044ZM48.3719 7.2749V2.68961C53.4878 5.2884 68.96 12.5376 91.2601 17.4948V20.2911C70.5474 15.6278 54.9788 9.89905 48.3719 7.2749ZM48.3719 21.6791V15.7624L91.2601 24.8197V27.8517L48.3719 21.6791Z" fill="#898A8B"/>
<path fill-rule="evenodd" clip-rule="evenodd" d="M93.0134 44.0605L46.4956 55.6596L0.2624 44.1316L0.237671 47.0478L46.6941 60.8929L92.9877 47.0963L93.0134 44.0605Z" fill="#898A8B"/>
<path fill-rule="evenodd" clip-rule="evenodd" d="M53.2449 39.5566C54.107 37.6919 54.359 32.3033 52.4689 31.1038C52.2454 30.962 52.1825 30.9598 51.9543 30.802C51.1635 30.2552 51.2189 30.2771 50.0341 30.2583C48.7197 30.2373 48.1891 30.2849 47.142 30.6524L47.1307 52.3152C47.1339 53.4615 46.5278 54.8153 50.4307 53.5294C51.2618 53.2555 52.2773 52.5696 52.7155 51.968C54.0328 50.1584 54.2009 47.8742 54.1993 45.7866C54.1987 44.8637 54.0243 43.8151 53.7304 43.1486C53.5335 42.7023 53.4527 42.4431 53.2205 42.0177C52.9049 41.4407 52.5503 41.5262 52.4786 41.102C52.4135 40.7142 52.7788 40.5649 53.2449 39.5566ZM49.2328 35.8772C49.2337 34.6342 48.9125 33.5802 50.4633 33.9164C51.3329 34.1052 51.7123 35.156 51.7539 35.9934C51.7993 36.9024 51.7229 38.1849 51.3814 38.9985C51.2343 39.3484 50.9109 39.6252 50.6552 39.879C50.2548 40.2769 50.0081 40.2785 49.2522 40.1551L49.2328 35.8772ZM49.3013 45.7866C49.3007 44.253 48.9388 43.384 50.499 43.6266C50.8176 43.6764 51.1908 43.801 51.4249 44.0408C52.0353 44.6662 51.9073 47.8178 51.5266 48.6655L50.5237 49.9846C48.8987 50.0447 49.3032 50.5312 49.3013 45.7866Z" fill="#ED1C24"/>
<path fill-rule="evenodd" clip-rule="evenodd" d="M55.901 34.1812L55.3567 37.273C55.2803 37.9354 55.1523 37.9156 55.146 38.789C55.1294 41.1424 55.0152 43.626 55.3091 45.8732C55.378 46.3979 55.4302 46.9576 55.5883 47.4493C55.7445 47.9352 55.7383 48.3361 55.9302 48.8602C56.2357 49.6947 55.8798 49.4017 56.4908 50.1661C57.3153 51.1973 57.4127 51.6098 58.7834 51.5356C59.3234 51.5065 59.7573 51.3193 60.1088 51.0905C61.3788 50.2638 61.1396 50.5828 61.5441 49.6975C61.8211 49.0912 61.7316 49.7075 62.2885 48.2263L62.4231 47.8935C63.0494 46.3478 63.0729 44.9642 63.2776 43.3383C63.4824 41.7133 63.4617 37.9638 63.153 36.4068C62.5933 33.583 62.8194 34.0528 61.8086 32.2761C61.535 31.7956 61.4686 31.5918 61.0075 31.3038C59.3741 30.2833 58.0281 30.4674 56.8542 31.9755C56.5637 32.3493 56.488 32.3828 56.3765 32.8442C56.0294 34.2804 56.199 33.4074 55.901 34.1812ZM57.9057 35.4752C58.3818 33.5823 60.0669 33.321 60.6072 35.181C60.9487 36.3567 61.191 37.6971 61.1919 39.1415C61.1928 40.5755 61.3293 44.5782 60.8764 45.8056C60.7749 46.0808 60.6788 46.21 60.5561 46.643C60.4729 46.936 60.4081 47.2064 60.2791 47.4099C60.0659 47.7461 59.3973 48.3042 58.8085 48.1865C58.2259 48.0704 58.1311 47.4362 57.9101 46.8868C57.135 44.9626 57.0996 40.2227 57.3103 38.3348C57.3648 37.8455 57.4624 38.0261 57.5122 37.3973C57.6384 35.8086 57.5457 36.9067 57.9057 35.4752Z" fill="#ED1C24"/>
<path fill-rule="evenodd" clip-rule="evenodd" d="M63.696 31.1213C63.5846 31.8983 64.2614 33.8313 64.4855 34.585C64.8283 35.7407 65.1811 36.8207 65.4612 38.0443C65.9339 40.1069 66.3922 39.7003 65.5254 42.4221C65.4018 42.8099 65.31 42.8682 65.2008 43.2369C65.0355 43.7944 64.9516 44.5172 64.7294 44.9855L64.2404 46.5979C64.1712 47.0885 63.923 47.9192 63.7677 48.3425C63.6363 48.7003 63.1385 49.6998 63.4337 49.9784C63.6403 50.1734 65.3504 50.1725 65.7489 49.2775C66.3108 48.016 66.0247 48.2079 66.405 46.5369L67.4042 43.0851C67.7501 43.2422 67.6615 43.082 67.8077 43.5058L68.4454 45.6623C68.4479 45.6717 69.2502 48.2924 69.4499 48.4088L70.0481 48.4771C70.4776 48.4339 71.3813 48.2677 71.7447 48.0019C71.7006 47.5671 71.2993 46.4136 71.1456 45.8958C71.0454 45.5571 70.9315 45.2669 70.8012 44.963L69.1566 39.8462C69.1387 38.9684 69.5613 38.4056 69.7426 37.7391L70.717 34.755C70.8854 34.328 70.9931 33.4634 71.3609 32.5916C71.7832 31.5903 71.9425 31.2447 69.4971 31.4475L68.1286 36.1784C68.0694 36.5878 67.9564 37.5438 67.6374 37.6988C67.5106 37.3453 67.4296 36.5756 67.31 36.1217C67.2965 36.0707 67.2205 35.7814 67.2108 35.7508L67.1801 35.66L67.042 35.3297C66.9522 35.1072 66.8361 34.8054 66.7647 34.5835C66.6251 34.1493 66.6974 33.8992 66.5653 33.3814C66.492 33.0944 66.4517 33.0534 66.4144 32.9419C65.7912 31.0553 67.0267 31.1232 63.696 31.1213Z" fill="#ED1C24"/>
<path fill-rule="evenodd" clip-rule="evenodd" d="M73.0373 32.6073L73.0385 39.4912C73.0388 42.1648 73.0269 44.839 73.0432 47.5123C73.5575 47.5167 74.6672 47.5101 74.9483 47.0296C75.1571 46.6724 75.035 45.3721 75.0331 44.854C75.0253 42.5279 75.2401 32.4536 74.9051 31.6391C74.6102 31.5176 74.4741 31.5057 74.0449 31.5057C73.9388 31.5057 73.6865 31.5183 73.5879 31.542C72.9509 31.6967 73.083 31.9659 73.051 32.1359C73.0492 32.1459 73.0373 32.5682 73.0373 32.6073Z" fill="#ED1C24"/>
<path fill-rule="evenodd" clip-rule="evenodd" d="M76.875 31.5637C76.5022 32.2211 76.7219 37.9721 76.7225 39.258L76.7197 46.0283C76.7279 47.2917 77.1032 46.8894 77.8069 46.7379C78.2821 46.6355 78.4517 46.6534 78.8133 46.4399L78.822 38.7612C79.08 38.852 79.038 38.6075 79.4769 39.551C79.8641 40.3831 80.0084 40.451 80.324 41.273L82.3894 45.0272C82.4635 45.1555 82.5496 45.2516 82.6232 45.3671C83.4064 45.4326 83.8274 45.3944 84.301 44.9705C84.3392 43.2811 84.5239 32.5529 84.1646 31.9134C83.598 31.6498 82.6107 31.8304 82.2451 32.0614C82.4629 34.5613 82.3721 37.5219 82.312 40.1811C82.1637 39.8841 82.045 39.3507 81.9211 38.9694C81.5091 37.7001 81.1516 37.762 80.8881 36.8352C80.5566 35.6691 80.1045 35.1147 79.6334 34.1415L78.4261 31.5055C77.9427 31.4595 77.286 31.3831 76.875 31.5637Z" fill="#ED1C24"/>
<path fill-rule="evenodd" clip-rule="evenodd" d="M86.5483 33.6757C86.1304 34.5262 86.3016 33.7243 85.9254 35.1583C85.7501 35.8266 85.7685 36.2207 85.6656 37.0098C85.5156 38.1568 85.5469 39.7993 85.761 40.9587C86.2813 43.7732 87.9281 44.742 90.8747 43.725C91.7565 43.4207 91.61 43.4254 92.1976 42.954C92.7582 42.5042 93.0328 42.6817 93.0581 41.7153C93.0879 40.5634 93.1411 38.6451 93.0087 37.5483C92.3529 37.4681 91.2206 37.5304 90.655 37.6753C89.3997 37.9975 89.2983 37.434 89.4476 39.0226C89.9456 39.0737 90.8278 38.9525 91.1449 39.1754C91.5925 39.5357 91.3702 41.1669 91.3258 41.2812C91.0287 42.0446 87.9103 43.2849 87.9 38.9118C87.8962 37.2709 87.7729 36.9889 88.1942 35.4431C88.2866 35.1041 88.4525 34.952 88.6212 34.7069C89.663 33.1943 90.9833 34.3525 92.3785 33.8942L92.5541 32.4136C92.2918 32.2743 92.0733 32.1779 91.7496 32.0668L91.4084 31.9431C90.4612 31.6298 88.3802 31.7885 87.4852 32.5285L86.934 33.0287C86.6334 33.2832 86.7264 33.3126 86.5483 33.6757Z" fill="#ED1C24"/>
<path fill-rule="evenodd" clip-rule="evenodd" d="M5.63866 34.1589L5.75449 32.2651C4.68079 31.5554 3.34727 31.7185 2.18185 32.3364C0.0375872 33.4737 -0.167762 38.8353 0.629843 40.9808C0.781664 41.3887 0.916267 41.6745 1.0803 42.0442C1.70761 43.4591 4.06881 45.1432 6.15704 43.6503L6.21026 39.7243C6.20776 37.7268 6.59372 37.7328 3.28247 37.8549L3.25368 38.9405C4.6138 39.5512 4.76812 38.6835 4.78252 40.7736C4.78377 40.9893 4.79567 41.2732 4.78221 41.4829C4.74997 41.9838 4.74871 42.2351 3.86847 42.1591C3.15664 42.0974 2.78475 41.4128 2.45638 40.7921C1.82688 39.6016 1.76959 35.8496 2.70117 34.4685C3.38264 33.4577 4.78753 34.2588 5.63866 34.1589Z" fill="#6883CA"/>
<path fill-rule="evenodd" clip-rule="evenodd" d="M8.73924 32.128C7.92316 32.8545 7.6718 33.4336 7.26267 34.4791C6.65726 36.0249 6.71674 41.5252 7.77886 43.6356C8.14917 44.3719 8.65347 44.8793 9.22631 45.3222C9.60195 45.613 9.14461 45.4271 9.70181 45.5511C9.99637 45.6165 10.7289 45.742 10.9787 45.7311C13.9738 45.5974 13.595 39.8026 13.5609 37.8589C13.5296 36.0759 13.3899 34.7696 12.8218 33.4439C12.4205 32.5083 12.4753 32.5941 11.7096 31.9987C11.3224 31.6975 10.2274 31.2812 9.57722 31.68C9.32461 31.835 8.92267 31.9642 8.73924 32.128ZM9.6536 34.0878C12.1979 32.3599 11.7869 39.7562 11.745 41.127C11.7259 41.7484 11.6298 42.0918 11.5118 42.5194C11.3402 43.1439 11.2911 43.0108 10.9784 43.4869C10.0227 43.5852 9.46328 43.1676 9.12959 42.2949C8.53013 40.7288 8.32478 34.99 9.6536 34.0878Z" fill="#6883CA"/>
<path fill-rule="evenodd" clip-rule="evenodd" d="M15.3239 32.0548C14.0107 33.7546 14.2367 36.3471 15.1799 38.5437C15.4676 39.2145 15.8946 39.5591 16.3125 40.0916L16.3647 40.1595L16.4186 40.2268C16.4906 40.3123 16.5172 40.3333 16.5895 40.4125C17.5793 41.4977 17.8516 42.5739 17.7474 44.1807C17.1914 44.5608 17.0775 44.7977 16.1932 44.5413C14.6869 44.105 15.8376 43.7885 14.7529 43.8514C14.551 44.1723 14.5182 44.5636 14.4324 45.0497C14.3353 45.6013 14.1798 45.9462 14.6221 46.3403C14.8669 46.5582 15.2923 46.7889 15.5765 46.9072C16.5278 47.3035 17.1883 47.5809 18.1481 47.3264C18.6114 47.2034 18.6949 46.849 18.9463 46.5288C19.7592 45.493 19.7079 42.3648 19.3614 41.0122C18.945 39.3873 17.959 38.4112 16.9069 37.0583C16.186 36.1308 16.2533 35.7858 16.3325 34.3428C16.8008 34.1506 16.8371 33.8729 17.6087 33.9997C18.1856 34.0945 18.2207 34.4026 18.971 34.3143C19.0449 33.7984 19.0318 33.5464 19.1704 33.1085C19.3354 32.5885 19.3673 32.5491 19.321 31.9133C18.7679 31.4879 18.282 31.2456 17.2769 31.3101C16.3406 31.3702 15.7709 31.476 15.3239 32.0548Z" fill="#6883CA"/>
<path fill-rule="evenodd" clip-rule="evenodd" d="M20.5267 31.5496C20.3251 33.8498 20.4892 42.3267 20.4951 45.7866L20.4917 47.3073C20.5092 47.5377 20.4776 47.3014 20.517 47.5258C20.636 48.2045 21.6765 48.196 22.1974 48.1362L22.1861 43.2085C22.2619 41.7742 23.9047 43.9447 25.3105 41.3378C25.5418 40.9083 25.987 39.2361 26.0289 38.6755C26.0946 37.798 26.0937 36.2786 26.0333 35.3993C26.0095 35.0515 25.5049 32.7551 25.0532 32.1763C23.9908 30.8146 21.844 30.973 20.5267 31.5496ZM22.4087 33.6548C22.6115 33.6917 22.9931 33.7778 23.3375 34.067C23.6821 34.356 23.9895 34.8484 24.1432 35.4328C24.2972 36.0169 24.2972 36.6937 24.2418 37.3827C24.1864 38.0716 24.0756 38.7728 23.8665 39.1729C23.6574 39.5726 23.3497 39.6709 23.1036 39.7204C22.8576 39.7695 22.6732 39.7695 22.5254 39.7448C22.378 39.7204 22.2672 39.6709 22.2118 38.6498C22.1564 37.6287 22.1564 35.6356 22.1686 34.633C22.1811 33.6303 22.2055 33.6178 22.4087 33.6548Z" fill="#6883CA"/>
<path fill-rule="evenodd" clip-rule="evenodd" d="M27.5385 32.7364C27.3278 33.3427 26.872 34.6731 26.8508 35.2869C26.8066 36.5566 26.5631 37.0715 26.575 38.3252C26.6194 42.918 26.2504 43.4633 27.4383 47.4927C27.7733 48.628 28.3364 49.9641 29.5344 50.4292C29.961 50.5951 30.512 50.6368 30.9355 50.4727C33.1242 49.6235 32.968 44.1035 33.1518 42.872C33.3017 41.8691 33.2601 40.7312 33.2466 39.608C33.2347 38.5907 32.9336 34.6114 32.5436 33.6517C32.0715 32.4897 31.4508 29.9573 29.0057 30.9355C28.2954 31.2197 27.7789 32.0436 27.5385 32.7364ZM28.4247 40.6573C28.4165 38.2539 28.193 35.9258 29.6042 34.1065C30.4118 34.0777 30.671 34.3381 30.8234 35.0544L31.3891 38.6696C31.4051 39.4324 31.4771 42.1057 31.3249 42.6926C31.0923 43.5889 31.3628 47.4244 29.8834 47.1978C29.0554 47.0707 28.9086 45.2836 28.6904 44.3595C28.3023 42.7146 28.4319 42.743 28.425 40.7738L28.4247 40.6573Z" fill="#6883CA"/>
<path fill-rule="evenodd" clip-rule="evenodd" d="M37.7927 30.5961C33.0484 30.2849 34.1903 31.3085 34.1662 36.2269L34.1803 51.141C34.4035 51.2552 34.7651 51.3407 35.0055 51.3995C35.0506 51.4108 35.3639 51.4756 35.3858 51.4769C36.1277 51.511 35.9443 50.8999 35.9502 49.5173C35.9571 47.8626 35.8679 44.8594 35.9787 43.4964C36.8862 43.3568 36.8311 44.304 36.9159 45.0885C36.9707 45.5953 37.0737 45.7468 37.1425 46.1613C37.2174 46.6101 37.1792 47.0431 37.2987 47.4566L37.804 49.5786C38.2319 51.3717 37.5661 52.6582 40.1367 52.4419C40.1708 51.7755 39.2975 48.0636 39.1187 46.7642C38.9146 45.2838 38.0344 43.3562 38.1026 42.8923C38.1555 42.532 38.7136 42.0145 39.1497 40.588C39.5072 39.4173 39.4258 37.0533 39.4155 35.7605C39.407 34.6943 39.0567 32.2104 38.5897 31.4594C38.3609 31.0916 38.0528 31.0099 37.7927 30.5961ZM36.0347 33.8926C36.2254 33.9289 36.5832 34.0141 36.9065 34.2999C37.2299 34.5857 37.5188 35.0718 37.6631 35.6493C37.8074 36.2269 37.8074 36.8958 37.7555 37.5767C37.7035 38.2575 37.5996 38.9506 37.4033 39.3459C37.207 39.741 36.9181 39.8383 36.6871 39.8869C36.4564 39.9354 36.283 39.9354 36.1443 39.9113C36.0059 39.8869 35.902 39.8383 35.85 38.8291C35.7981 37.8199 35.7981 35.85 35.8097 34.8593C35.8209 33.8682 35.8441 33.856 36.0347 33.8926Z" fill="#6883CA"/>
<path fill-rule="evenodd" clip-rule="evenodd" d="M40.0653 30.581C39.8975 31.2456 39.932 32.8173 39.9495 33.5592C39.9861 35.0981 41.4439 33.8128 42.0456 34.4285C42.4159 34.8138 42.1968 38.2187 42.1986 39.0247C42.2077 42.7182 41.9889 50.1633 42.2234 53.0154C42.4365 53.1537 42.3661 53.0417 42.5032 53.3103L43.9325 53.3209L43.971 34.4601C44.568 34.4426 45.5678 34.6129 46.0355 34.3615C46.2821 33.8353 46.2227 31.3589 46.1269 30.524L40.0653 30.581Z" fill="#6883CA"/>
<path fill-rule="evenodd" clip-rule="evenodd" d="M93.1294 62.7622H0.148682V62.7807C2.28105 64.8933 3.57826 66.1721 4.36741 66.9462C2.56466 68.7352 1.20109 70.085 0.169968 71.1036H93.1595V71.081C92.1421 70.0765 90.7751 68.7239 88.9392 66.9017C89.7678 66.0879 91.0734 64.8 93.1294 62.7622ZM34.7603 65.1854L35.9727 64.2382H38.4597L39.6617 65.2189V66.4175H37.7344V65.6966H36.8432V68.3285H37.7344V67.5156H39.6617V68.8397L38.3874 69.8204H35.9727L34.7603 68.8231V65.1854ZM40.387 65.6966V64.2382H43.4648V65.6966H42.9157V68.3454H43.6617V67.4652H45.5064V69.8204H40.387V68.3454H40.8534V65.6966H40.387ZM46.1071 65.6966V64.2382H48.9879V65.6296H48.6977V68.3454H49.5476V65.6296H49.2677V64.2382H52.1589V65.6966H51.6095V68.8397L50.3765 69.8204H47.8481L46.6564 68.8397V65.6966H46.1071ZM52.9258 65.6966V64.2382H57.1743L58.3453 65.2189V66.6607L58.0239 66.9371L58.3453 67.2304V68.8397L57.112 69.8204H52.9258L52.9049 68.3454H53.3919V65.6966H52.9258ZM64.4958 66.2043L65.0314 64.4457L65.5667 66.2043L67.3096 66.2009L65.8976 67.2843L66.4394 69.0407L65.0314 67.9516L63.6231 69.0407L64.1649 67.2843L62.7528 66.2009L64.4958 66.2043ZM70.9918 66.2043L71.5271 64.4457L72.0627 66.2043L73.8057 66.2009L72.3936 67.2843L72.9354 69.0407L71.5271 67.9516L70.1191 69.0407L70.661 67.2843L69.2489 66.2009L70.9918 66.2043ZM77.4879 66.2043L78.0231 64.4457L78.5587 66.2043L80.3017 66.2009L78.8896 67.2843L79.4315 69.0407L78.0231 67.9516L76.6151 69.0407L77.157 67.2843L75.7449 66.2009L77.4879 66.2043ZM83.9839 66.2043L84.5192 64.4457L85.0548 66.2043L86.7977 66.2009L85.3857 67.2843L85.9272 69.0407L84.5192 67.9516L83.1112 69.0407L83.653 67.2843L82.2409 66.2009L83.9839 66.2043ZM28.196 64.4134L28.7316 66.1724L30.4746 66.1686L29.0625 67.252L29.6043 69.0088L28.196 67.9197L26.788 69.0088L27.3299 67.252L25.9178 66.1686L27.6607 66.1724L28.196 64.4134ZM21.7 64.4134L22.2356 66.1724L23.9785 66.1686L22.5664 67.252L23.1083 69.0088L21.7 67.9197L20.292 69.0088L20.8338 67.252L19.4217 66.1686L21.1647 66.1724L21.7 64.4134ZM15.2043 64.4134L15.7395 66.1724L17.4825 66.1686L16.0704 67.252L16.6123 69.0088L15.2043 67.9197L13.7959 69.0088L14.3378 67.252L12.9257 66.1686L14.6687 66.1724L15.2043 64.4134ZM8.70822 64.4134L9.24351 66.1724L10.9865 66.1686L9.57438 67.252L10.1162 69.0088L8.70822 67.9197L7.3002 69.0088L7.84175 67.252L6.42966 66.1686L8.17262 66.1724L8.70822 64.4134Z" fill="#898A8B"/>
<path fill-rule="evenodd" clip-rule="evenodd" d="M56.2831 67.6915H55.4749V68.3455H56.2831V67.6915Z" fill="#898A8B"/>
<path fill-rule="evenodd" clip-rule="evenodd" d="M55.4749 66.2498H56.2831V65.6967H55.4749V66.2498Z" fill="#898A8B"/>
<path fill-rule="evenodd" clip-rule="evenodd" d="M9.57453 67.252L10.9866 66.1686L9.24365 66.1724L8.70837 64.4135L8.17277 66.1724L6.42981 66.1686L7.8419 67.252L7.30035 69.0088L8.70837 67.9197L10.1164 69.0088L9.57453 67.252Z" fill="white"/>
<path fill-rule="evenodd" clip-rule="evenodd" d="M12.9258 66.1686L14.3379 67.252L13.796 69.0088L15.2043 67.9197L16.6124 69.0088L16.0705 67.252L17.4826 66.1686L15.7396 66.1724L15.2043 64.4135L14.6687 66.1724L12.9258 66.1686Z" fill="white"/>
<path fill-rule="evenodd" clip-rule="evenodd" d="M19.4218 66.1686L20.8338 67.252L20.292 69.0088L21.7 67.9197L23.1083 69.0088L22.5665 67.252L23.9786 66.1686L22.2356 66.1724L21.7 64.4135L21.1647 66.1724L19.4218 66.1686Z" fill="white"/>
<path fill-rule="evenodd" clip-rule="evenodd" d="M25.9178 66.1686L27.3299 67.252L26.7881 69.0088L28.1961 67.9197L29.6044 69.0088L29.0626 67.252L30.4746 66.1686L28.7317 66.1724L28.1961 64.4135L27.6608 66.1724L25.9178 66.1686Z" fill="white"/>
<path fill-rule="evenodd" clip-rule="evenodd" d="M34.7604 65.1854V68.8231L35.9727 69.8205H38.3875L39.6618 68.8397V67.5156H37.7345V68.3285H36.8433V65.6966H37.7345V66.4175H39.6618V65.2189L38.4598 64.2382H35.9727L34.7604 65.1854Z" fill="white"/>
<path fill-rule="evenodd" clip-rule="evenodd" d="M40.3871 64.2382V65.6966H40.8536V68.3454H40.3871V69.8205H45.5065V67.4652H43.6618V68.3454H42.9158V65.6966H43.4649V64.2382H40.3871Z" fill="white"/>
<path fill-rule="evenodd" clip-rule="evenodd" d="M46.1072 64.2382V65.6966H46.6565V68.8397L47.8483 69.8205H50.3766L51.6096 68.8397V65.6966H52.159V64.2382H49.2679V65.6296H49.5477V68.3454H48.6978V65.6296H48.988V64.2382H46.1072Z" fill="white"/>
<path fill-rule="evenodd" clip-rule="evenodd" d="M52.9259 64.2382V65.6966H53.392V68.3454H52.9049L52.9259 69.8205H57.1121L58.3454 68.8397V67.2304L58.0239 66.9371L58.3454 66.6607V65.2189L57.1743 64.2382H52.9259ZM55.4749 67.6915H56.2831V68.3454H55.4749V67.6915ZM55.4749 65.6966H56.2831V66.2497H55.4749V65.6966Z" fill="white"/>
<path fill-rule="evenodd" clip-rule="evenodd" d="M62.7529 66.2008L64.165 67.2843L63.6232 69.0407L65.0315 67.9516L66.4395 69.0407L65.8976 67.2843L67.3097 66.2008L65.5668 66.2043L65.0315 64.4457L64.4959 66.2043L62.7529 66.2008Z" fill="white"/>
<path fill-rule="evenodd" clip-rule="evenodd" d="M69.2489 66.2008L70.661 67.2843L70.1191 69.0407L71.5271 67.9516L72.9355 69.0407L72.3936 67.2843L73.8057 66.2008L72.0627 66.2043L71.5271 64.4457L70.9919 66.2043L69.2489 66.2008Z" fill="white"/>
<path fill-rule="evenodd" clip-rule="evenodd" d="M75.7449 66.2008L77.157 67.2843L76.6151 69.0407L78.0231 67.9516L79.4314 69.0407L78.8896 67.2843L80.3017 66.2008L78.5587 66.2043L78.0231 64.4457L77.4878 66.2043L75.7449 66.2008Z" fill="white"/>
<path fill-rule="evenodd" clip-rule="evenodd" d="M83.6531 67.2843L83.1112 69.0407L84.5192 67.9516L85.9272 69.0407L85.3857 67.2843L86.7978 66.2008L85.0548 66.2043L84.5192 64.4457L83.9839 66.2043L82.241 66.2008L83.6531 67.2843Z" fill="white"/>
</svg>
