<svg width="370" height="280" viewBox="0 0 370 280" fill="none" xmlns="http://www.w3.org/2000/svg">
<path fill-rule="evenodd" clip-rule="evenodd" d="M177.657 59.4917V82.9967L7.13944 107.537V95.5004L177.657 59.4917ZM7.13944 110.355C121.606 94.6118 162.819 88.9354 177.657 86.8887V106.386L7.13944 116.526V110.355ZM0.105957 120.644L185.544 112.76L368.861 120.555V65.8255C272.296 40.1906 203.208 9.27184 184.58 0.534668C166.238 9.14633 97.0065 40.1918 0.105957 65.915V120.644ZM191.571 106.312V86.834C206.629 88.9105 248.025 94.6131 361.827 110.266V116.436L191.571 106.312ZM177.657 54.6217L7.13944 92.4223V79.383C94.3236 63.9404 155.916 38.7379 177.657 28.978V54.6217ZM177.657 25.7483C151.581 36.1184 89.6387 58.9499 7.13944 77.5227V66.4232C96.0484 46.6587 157.617 17.7182 177.657 7.51596V25.7483ZM361.827 92.3316L191.571 54.5893V29.0054C213.54 38.8473 274.988 63.9106 361.827 79.2935V92.3316ZM191.571 25.762V7.55945C211.88 17.8761 273.301 46.6537 361.827 66.3325V77.4333C279.602 58.9213 217.798 36.1793 191.571 25.762ZM191.571 82.9432V59.4556L361.827 95.4109V107.447L191.571 82.9432Z" fill="white"/>
<path fill-rule="evenodd" clip-rule="evenodd" d="M368.788 171.792L184.123 217.838L0.587672 172.075L0.489502 183.651L184.911 238.613L368.686 183.844L368.788 171.792Z" fill="white"/>
<path fill-rule="evenodd" clip-rule="evenodd" d="M210.916 153.913C214.338 146.51 215.338 125.119 207.835 120.357C206.948 119.794 206.698 119.786 205.792 119.159C202.653 116.988 202.873 117.075 198.17 117.001C192.952 116.918 190.845 117.107 186.689 118.565L186.644 204.562C186.656 209.112 184.25 214.487 199.744 209.382C203.043 208.294 207.074 205.572 208.814 203.183C214.043 196 214.711 186.932 214.704 178.645C214.702 174.981 214.01 170.818 212.843 168.173C212.061 166.401 211.741 165.372 210.819 163.683C209.566 161.393 208.158 161.732 207.874 160.048C207.615 158.508 209.065 157.916 210.916 153.913ZM194.988 139.307C194.992 134.372 193.717 130.188 199.873 131.523C203.325 132.272 204.831 136.444 204.997 139.768C205.177 143.376 204.874 148.468 203.518 151.697C202.934 153.087 201.65 154.185 200.635 155.193C199.046 156.772 198.066 156.779 195.065 156.289L194.988 139.307ZM195.26 178.645C195.258 172.557 193.821 169.107 200.015 170.07C201.28 170.268 202.761 170.762 203.691 171.714C206.114 174.197 205.606 186.708 204.095 190.073L200.113 195.31C193.662 195.548 195.268 197.48 195.26 178.645Z" fill="white"/>
<path fill-rule="evenodd" clip-rule="evenodd" d="M221.459 132.574L219.298 144.847C218.995 147.477 218.487 147.399 218.462 150.866C218.396 160.208 217.943 170.067 219.11 178.988C219.383 181.071 219.59 183.293 220.218 185.245C220.838 187.174 220.813 188.766 221.575 190.846C222.788 194.159 221.375 192.996 223.801 196.03C227.074 200.124 227.46 201.761 232.902 201.467C235.045 201.351 236.768 200.608 238.163 199.7C243.205 196.418 242.255 197.684 243.861 194.17C244.961 191.763 244.605 194.21 246.816 188.329L247.35 187.008C249.837 180.872 249.93 175.38 250.743 168.925C251.556 162.475 251.473 147.59 250.248 141.409C248.026 130.199 248.924 132.064 244.911 125.011C243.825 123.103 243.561 122.294 241.731 121.151C235.247 117.1 229.903 117.831 225.243 123.818C224.09 125.301 223.789 125.434 223.347 127.266C221.969 132.967 222.642 129.502 221.459 132.574ZM229.417 137.711C231.308 130.196 237.997 129.159 240.142 136.543C241.497 141.21 242.459 146.531 242.463 152.265C242.467 157.957 243.008 173.847 241.21 178.72C240.808 179.812 240.426 180.325 239.939 182.044C239.609 183.207 239.351 184.281 238.839 185.089C237.993 186.423 235.339 188.639 233.001 188.172C230.689 187.711 230.312 185.193 229.435 183.012C226.358 175.373 226.218 156.557 227.054 149.062C227.27 147.12 227.658 147.837 227.855 145.341C228.356 139.034 227.988 143.393 229.417 137.711Z" fill="white"/>
<path fill-rule="evenodd" clip-rule="evenodd" d="M252.404 120.427C251.962 123.511 254.649 131.185 255.538 134.177C256.899 138.765 258.3 143.052 259.412 147.91C261.288 156.098 263.107 154.483 259.666 165.288C259.176 166.828 258.811 167.059 258.378 168.523C257.722 170.736 257.389 173.605 256.506 175.464L254.565 181.865C254.291 183.813 253.305 187.111 252.689 188.791C252.167 190.211 250.191 194.179 251.363 195.285C252.183 196.059 258.972 196.055 260.554 192.503C262.784 187.495 261.648 188.256 263.158 181.623L267.125 167.92C268.498 168.544 268.146 167.908 268.727 169.59L271.258 178.151C271.268 178.188 274.453 188.592 275.246 189.054L277.62 189.325C279.325 189.154 282.913 188.494 284.356 187.439C284.18 185.713 282.587 181.134 281.977 179.078C281.58 177.734 281.127 176.582 280.61 175.375L274.081 155.062C274.011 151.578 275.688 149.344 276.408 146.698L280.276 134.852C280.945 133.157 281.372 129.724 282.832 126.264C284.509 122.288 285.141 120.916 275.433 121.722L270 140.502C269.766 142.128 269.317 145.923 268.051 146.538C267.547 145.135 267.226 142.079 266.751 140.277C266.697 140.075 266.395 138.926 266.357 138.805L266.235 138.444L265.687 137.133C265.331 136.25 264.869 135.052 264.586 134.171C264.032 132.447 264.319 131.454 263.795 129.399C263.504 128.259 263.343 128.097 263.196 127.654C260.721 120.165 265.626 120.434 252.404 120.427Z" fill="white"/>
<path fill-rule="evenodd" clip-rule="evenodd" d="M289.488 126.326L289.493 153.653C289.494 164.267 289.447 174.883 289.511 185.495C291.553 185.513 295.958 185.486 297.074 183.579C297.903 182.161 297.418 176.999 297.411 174.942C297.38 165.708 298.232 125.716 296.903 122.482C295.732 122 295.191 121.953 293.488 121.953C293.066 121.953 292.065 122.002 291.673 122.097C289.145 122.711 289.669 123.779 289.542 124.454C289.535 124.494 289.488 126.17 289.488 126.326Z" fill="white"/>
<path fill-rule="evenodd" clip-rule="evenodd" d="M304.721 122.183C303.241 124.792 304.114 147.623 304.116 152.727L304.105 179.604C304.137 184.619 305.627 183.022 308.421 182.421C310.307 182.015 310.981 182.085 312.416 181.238L312.451 150.755C313.475 151.116 313.308 150.145 315.05 153.891C316.588 157.194 317.16 157.463 318.413 160.726L326.612 175.63C326.907 176.139 327.248 176.521 327.54 176.979C330.65 177.239 332.321 177.087 334.201 175.405C334.353 168.698 335.086 126.11 333.659 123.571C331.41 122.524 327.491 123.241 326.039 124.159C326.904 134.082 326.544 145.836 326.305 156.392C325.716 155.213 325.245 153.095 324.753 151.582C323.118 146.543 321.699 146.789 320.652 143.109C319.336 138.48 317.542 136.28 315.672 132.416L310.879 121.952C308.96 121.769 306.353 121.466 304.721 122.183Z" fill="white"/>
<path fill-rule="evenodd" clip-rule="evenodd" d="M343.123 130.567C341.464 133.943 342.143 130.76 340.65 136.452C339.954 139.105 340.027 140.67 339.618 143.803C339.023 148.356 339.147 154.876 339.997 159.479C342.063 170.652 348.6 174.498 360.298 170.46C363.798 169.252 363.217 169.271 365.549 167.4C367.775 165.614 368.865 166.318 368.965 162.482C369.083 157.909 369.294 150.294 368.769 145.94C366.165 145.622 361.671 145.869 359.425 146.445C354.442 147.723 354.04 145.486 354.632 151.793C356.609 151.996 360.111 151.515 361.37 152.399C363.147 153.83 362.265 160.305 362.088 160.759C360.909 163.79 348.53 168.713 348.489 151.353C348.474 144.839 347.984 143.719 349.657 137.583C350.023 136.237 350.682 135.633 351.352 134.66C355.487 128.656 360.729 133.254 366.267 131.434L366.964 125.557C365.923 125.004 365.056 124.621 363.771 124.18L362.416 123.689C358.656 122.445 350.395 123.075 346.842 126.013L344.654 127.998C343.461 129.009 343.83 129.126 343.123 130.567Z" fill="white"/>
<path fill-rule="evenodd" clip-rule="evenodd" d="M21.9289 132.485L22.3886 124.967C18.1263 122.15 12.8326 122.798 8.20611 125.251C-0.306142 129.765 -1.12133 151.05 2.04498 159.567C2.64767 161.186 3.18202 162.321 3.83317 163.788C6.32347 169.405 15.6969 176.091 23.9867 170.164L24.198 154.579C24.188 146.649 25.7202 146.673 12.5753 147.158L12.461 151.467C17.8604 153.892 18.473 150.447 18.5302 158.744C18.5351 159.6 18.5824 160.728 18.5289 161.56C18.4009 163.548 18.396 164.546 14.9016 164.244C12.0758 163.999 10.5995 161.282 9.29593 158.818C6.79693 154.092 6.56952 139.197 10.2677 133.714C12.973 129.702 18.5501 132.882 21.9289 132.485Z" fill="white"/>
<path fill-rule="evenodd" clip-rule="evenodd" d="M34.2383 124.423C30.9987 127.307 30.0008 129.606 28.3766 133.757C25.9733 139.893 26.2094 161.728 30.4258 170.106C31.8959 173.029 33.8978 175.043 36.1719 176.802C37.6631 177.956 35.8475 177.218 38.0595 177.71C39.2288 177.97 42.1367 178.468 43.1283 178.424C55.0181 177.894 53.5145 154.89 53.3791 147.174C53.2548 140.096 52.7006 134.91 50.4451 129.647C48.852 125.933 49.0695 126.274 46.0299 123.91C44.4928 122.715 40.1459 121.062 37.5649 122.645C36.5621 123.26 34.9665 123.773 34.2383 124.423ZM37.8681 132.204C47.9685 125.344 46.3369 154.706 46.1704 160.147C46.0946 162.614 45.7131 163.977 45.2446 165.675C44.5636 168.154 44.3685 167.626 43.1271 169.516C39.3332 169.906 37.1126 168.248 35.7879 164.784C33.4082 158.567 32.593 135.785 37.8681 132.204Z" fill="white"/>
<path fill-rule="evenodd" clip-rule="evenodd" d="M60.3777 124.132C55.1647 130.88 56.0619 141.172 59.8061 149.892C60.9481 152.555 62.6431 153.923 64.302 156.037L64.5095 156.306L64.7233 156.574C65.0091 156.913 65.1147 156.996 65.4018 157.31C69.3311 161.619 70.4122 165.891 69.9984 172.27C67.7914 173.778 67.3391 174.719 63.8286 173.701C57.8489 171.969 62.4169 170.713 58.1111 170.962C57.3095 172.236 57.1791 173.789 56.8386 175.719C56.4534 177.909 55.8358 179.278 57.5916 180.843C58.5634 181.708 60.2522 182.623 61.3805 183.093C65.157 184.666 67.779 185.767 71.589 184.757C73.4282 184.269 73.7599 182.862 74.7578 181.591C77.985 177.479 77.7812 165.061 76.4056 159.691C74.7528 153.241 70.8384 149.366 66.6618 143.995C63.8 140.313 64.0672 138.944 64.3816 133.215C66.2406 132.452 66.3847 131.35 69.4479 131.853C71.7381 132.23 71.8773 133.452 74.856 133.102C75.1492 131.054 75.0971 130.054 75.6476 128.315C76.3024 126.251 76.4292 126.095 76.2453 123.571C74.0495 121.882 72.1209 120.92 68.1307 121.176C64.4139 121.415 62.1522 121.835 60.3777 124.132Z" fill="white"/>
<path fill-rule="evenodd" clip-rule="evenodd" d="M81.0309 122.127C80.2307 131.258 80.8818 164.909 80.9054 178.645L80.8918 184.681C80.9614 185.596 80.8358 184.658 80.9924 185.549C81.4646 188.243 85.5952 188.209 87.663 187.972L87.6183 168.41C87.919 162.716 94.4405 171.333 100.021 160.984C100.94 159.279 102.707 152.641 102.873 150.415C103.134 146.932 103.13 140.9 102.891 137.409C102.796 136.029 100.793 126.912 98.9999 124.615C94.7823 119.209 86.2601 119.838 81.0309 122.127ZM88.5018 130.484C89.3071 130.63 90.8219 130.972 92.1888 132.12C93.557 133.267 94.7773 135.222 95.3874 137.542C95.9988 139.861 95.9988 142.548 95.7789 145.283C95.5589 148.018 95.119 150.801 94.2889 152.39C93.4588 153.976 92.2373 154.367 91.2606 154.563C90.2838 154.758 89.5519 154.758 88.9654 154.66C88.3801 154.563 87.9402 154.367 87.7202 150.313C87.5003 146.259 87.5003 138.347 87.5487 134.367C87.5984 130.387 87.6954 130.337 88.5018 130.484Z" fill="white"/>
<path fill-rule="evenodd" clip-rule="evenodd" d="M108.867 126.838C108.031 129.245 106.222 134.526 106.137 136.963C105.962 142.003 104.995 144.048 105.042 149.025C105.219 167.257 103.754 169.422 108.47 185.417C109.799 189.924 112.035 195.228 116.791 197.075C118.484 197.733 120.671 197.899 122.353 197.247C131.041 193.876 130.421 171.963 131.151 167.074C131.746 163.093 131.581 158.576 131.527 154.117C131.48 150.078 130.285 134.282 128.736 130.472C126.862 125.859 124.398 115.806 114.692 119.689C111.872 120.817 109.822 124.088 108.867 126.838ZM112.385 158.282C112.353 148.741 111.466 139.499 117.068 132.277C120.274 132.163 121.303 133.197 121.908 136.04L124.153 150.391C124.217 153.42 124.503 164.032 123.899 166.362C122.975 169.92 124.049 185.146 118.176 184.247C114.889 183.742 114.307 176.648 113.44 172.979C111.899 166.449 112.414 166.562 112.387 158.745L112.385 158.282Z" fill="white"/>
<path fill-rule="evenodd" clip-rule="evenodd" d="M149.574 118.342C130.74 117.106 135.273 121.17 135.177 140.695L135.233 199.9C136.119 200.354 137.555 200.693 138.509 200.927C138.688 200.971 139.932 201.229 140.019 201.234C142.964 201.369 142.236 198.943 142.259 193.454C142.287 186.886 141.933 174.964 142.372 169.553C145.975 168.999 145.756 172.759 146.093 175.873C146.31 177.885 146.719 178.487 146.993 180.132C147.29 181.914 147.138 183.632 147.613 185.274L149.618 193.698C151.317 200.816 148.674 205.923 158.879 205.065C159.014 202.419 155.547 187.684 154.838 182.525C154.027 176.649 150.533 168.996 150.804 167.155C151.014 165.724 153.23 163.67 154.961 158.007C156.38 153.36 156.057 143.975 156.016 138.843C155.982 134.611 154.592 124.75 152.738 121.769C151.829 120.309 150.606 119.984 149.574 118.342ZM142.595 131.428C143.352 131.572 144.772 131.91 146.056 133.045C147.339 134.179 148.486 136.109 149.059 138.402C149.632 140.695 149.632 143.35 149.426 146.053C149.22 148.756 148.807 151.507 148.028 153.077C147.249 154.645 146.102 155.031 145.185 155.224C144.269 155.417 143.58 155.417 143.03 155.321C142.481 155.224 142.068 155.031 141.862 151.025C141.655 147.019 141.655 139.198 141.701 135.265C141.746 131.331 141.838 131.283 142.595 131.428Z" fill="white"/>
<path fill-rule="evenodd" clip-rule="evenodd" d="M158.596 118.282C157.93 120.92 158.067 127.16 158.136 130.105C158.282 136.214 164.069 131.111 166.457 133.556C167.927 135.085 167.057 148.602 167.065 151.802C167.101 166.464 166.232 196.019 167.163 207.341C168.009 207.891 167.73 207.446 168.274 208.512L173.948 208.554L174.101 133.681C176.47 133.612 180.44 134.288 182.296 133.29C183.275 131.201 183.039 121.37 182.659 118.056L158.596 118.282Z" fill="white"/>
<path fill-rule="evenodd" clip-rule="evenodd" d="M369.248 246.034H0.135986V246.107C8.60102 254.494 13.7506 259.57 16.8834 262.643C9.72687 269.745 4.31383 275.104 0.220488 279.147H369.368V279.058C365.329 275.07 359.902 269.7 352.614 262.467C355.903 259.236 361.087 254.124 369.248 246.034ZM137.536 255.653L142.349 251.893H152.222L156.994 255.786V260.545H149.343V257.683H145.805V268.131H149.343V264.904H156.994V270.16L151.935 274.054H142.349L137.536 270.094V255.653ZM159.873 257.683V251.893H172.091V257.683H169.911V268.198H172.873V264.704H180.196V274.054H159.873V268.198H161.725V257.683H159.873ZM182.58 257.683V251.893H194.017V257.417H192.865V268.198H196.238V257.417H195.127V251.893H206.605V257.683H204.424V270.16L199.529 274.054H189.492L184.761 270.16V257.683H182.58ZM209.649 257.683V251.893H226.515L231.163 255.786V261.51L229.887 262.607L231.163 263.772V270.16L226.267 274.054H209.649L209.566 268.198H211.5V257.683H209.649ZM255.579 259.698L257.706 252.717L259.831 259.698L266.75 259.685L261.144 263.985L263.295 270.958L257.706 266.635L252.115 270.958L254.266 263.985L248.66 259.685L255.579 259.698ZM281.367 259.698L283.492 252.717L285.618 259.698L292.537 259.685L286.932 263.985L289.083 270.958L283.492 266.635L277.903 270.958L280.054 263.985L274.448 259.685L281.367 259.698ZM307.155 259.698L309.28 252.717L311.406 259.698L318.325 259.685L312.72 263.985L314.871 270.958L309.28 266.635L303.69 270.958L305.841 263.985L300.236 259.685L307.155 259.698ZM332.943 259.698L335.068 252.717L337.194 259.698L344.113 259.685L338.507 263.985L340.657 270.958L335.068 266.635L329.478 270.958L331.629 263.985L326.024 259.685L332.943 259.698ZM111.477 252.589L113.604 259.572L120.523 259.557L114.917 263.857L117.068 270.831L111.477 266.508L105.888 270.831L108.039 263.857L102.433 259.557L109.353 259.572L111.477 252.589ZM85.6897 252.589L87.8159 259.572L94.7351 259.557L89.1294 263.857L91.2805 270.831L85.6897 266.508L80.1002 270.831L82.2513 263.857L76.6456 259.557L83.5648 259.572L85.6897 252.589ZM59.9032 252.589L62.0281 259.572L68.9473 259.557L63.3416 263.857L65.4927 270.831L59.9032 266.508L54.3124 270.831L56.4635 263.857L50.8578 259.557L57.777 259.572L59.9032 252.589ZM34.1154 252.589L36.2404 259.572L43.1595 259.557L37.5539 263.857L39.7049 270.831L34.1154 266.508L28.5259 270.831L30.6757 263.857L25.0701 259.557L31.9892 259.572L34.1154 252.589Z" fill="white"/>
<path fill-rule="evenodd" clip-rule="evenodd" d="M222.977 265.603H219.768V268.198H222.977V265.603Z" fill="white"/>
<path fill-rule="evenodd" clip-rule="evenodd" d="M219.768 259.879H222.977V257.683H219.768V259.879Z" fill="white"/>
<path fill-rule="evenodd" clip-rule="evenodd" d="M37.5541 263.858L43.1598 259.557L36.2406 259.572L34.1157 252.589L31.9895 259.572L25.0703 259.557L30.676 263.858L28.5262 270.831L34.1157 266.508L39.7052 270.831L37.5541 263.858Z" fill="#B73D2C"/>
<path fill-rule="evenodd" clip-rule="evenodd" d="M50.8572 259.557L56.4628 263.858L54.3118 270.831L59.9025 266.508L65.492 270.831L63.341 263.858L68.9466 259.557L62.0275 259.572L59.9025 252.589L57.7763 259.572L50.8572 259.557Z" fill="#B73D2C"/>
<path fill-rule="evenodd" clip-rule="evenodd" d="M76.6453 259.557L82.2509 263.858L80.0999 270.831L85.6894 266.508L91.2801 270.831L89.1291 263.858L94.7347 259.557L87.8156 259.572L85.6894 252.589L83.5644 259.572L76.6453 259.557Z" fill="#B73D2C"/>
<path fill-rule="evenodd" clip-rule="evenodd" d="M102.434 259.557L108.039 263.858L105.888 270.831L111.478 266.508L117.068 270.831L114.917 263.858L120.523 259.557L113.604 259.572L111.478 252.589L109.353 259.572L102.434 259.557Z" fill="#B73D2C"/>
<path fill-rule="evenodd" clip-rule="evenodd" d="M137.535 255.653V270.094L142.348 274.054H151.934L156.993 270.16V264.904H149.342V268.131H145.804V257.683H149.342V260.544H156.993V255.786L152.221 251.893H142.348L137.535 255.653Z" fill="#B73D2C"/>
<path fill-rule="evenodd" clip-rule="evenodd" d="M159.874 251.893V257.683H161.725V268.198H159.874V274.054H180.196V264.704H172.873V268.198H169.912V257.683H172.091V251.893H159.874Z" fill="#B73D2C"/>
<path fill-rule="evenodd" clip-rule="evenodd" d="M182.58 251.893V257.683H184.761V270.16L189.492 274.054H199.529L204.424 270.16V257.683H206.605V251.893H195.128V257.417H196.238V268.198H192.865V257.417H194.017V251.893H182.58Z" fill="#B73D2C"/>
<path fill-rule="evenodd" clip-rule="evenodd" d="M209.649 251.893V257.683H211.5V268.198H209.566L209.649 274.054H226.267L231.163 270.16V263.772L229.887 262.607L231.163 261.51V255.786L226.515 251.893H209.649ZM219.768 265.602H222.977V268.198H219.768V265.602ZM219.768 257.683H222.977V259.878H219.768V257.683Z" fill="#B73D2C"/>
<path fill-rule="evenodd" clip-rule="evenodd" d="M248.66 259.685L254.266 263.986L252.115 270.958L257.706 266.635L263.295 270.958L261.144 263.986L266.75 259.685L259.831 259.698L257.706 252.717L255.58 259.698L248.66 259.685Z" fill="#B73D2C"/>
<path fill-rule="evenodd" clip-rule="evenodd" d="M274.447 259.685L280.053 263.986L277.902 270.958L283.491 266.635L289.082 270.958L286.931 263.986L292.537 259.685L285.618 259.698L283.491 252.717L281.366 259.698L274.447 259.685Z" fill="#B73D2C"/>
<path fill-rule="evenodd" clip-rule="evenodd" d="M300.235 259.685L305.841 263.986L303.69 270.958L309.279 266.635L314.87 270.958L312.719 263.986L318.325 259.685L311.406 259.698L309.279 252.717L307.155 259.698L300.235 259.685Z" fill="#B73D2C"/>
<path fill-rule="evenodd" clip-rule="evenodd" d="M331.629 263.986L329.478 270.958L335.068 266.635L340.657 270.958L338.507 263.986L344.113 259.685L337.194 259.698L335.068 252.717L332.943 259.698L326.024 259.685L331.629 263.986Z" fill="#B73D2C"/>
</svg>
